<svg width="53" height="48" viewBox="0 0 53 48" fill="none" xmlns="http://www.w3.org/2000/svg">
<path d="M47.4978 0.290527L39.9546 0.303955L39.367 0.300733L39.0752 0.800781L35.3859 7.12524L29.0614 7.13867L25.7111 1.40503L25.4291 0.897998L24.8417 0.891553L17.2988 0.904873L16.708 0.901436L16.4192 1.40159L12.7669 7.66558L5.72407 7.679L5.13648 7.67578L4.8445 8.17594L1.07475 14.6414L0.785996 15.1416L1.08463 15.6452L4.42824 21.3686L0.802754 27.5924L0.510781 28.0926L0.809629 28.5962L4.58282 35.0516L4.86137 35.5619L5.45219 35.5651L12.7367 35.5518L16.07 41.2483L16.3487 41.7586L16.9396 41.7621L24.2006 41.7487L27.5508 47.4824L27.8329 47.9892L28.4205 47.996L35.9634 47.9826L36.5341 47.9925L36.8263 47.4923L40.4952 41.2216L47.5383 41.2083L48.1089 41.2184L48.3976 40.7182L52.1875 34.246L52.4762 33.7459L52.1776 33.2423L48.4043 26.7869L48.1256 26.2799L47.5348 26.2734L40.2738 26.2867L37.3531 21.2916L40.8915 15.239L47.5012 15.2256L48.0719 15.2358L48.3606 14.7357L52.1472 8.26349L52.4394 7.76322L52.1404 7.25963L48.3672 0.804219L48.0887 0.297402L47.4979 0.290742L47.4978 0.290527ZM46.9236 2.29459L50.0925 7.7832L46.9204 13.2282L40.532 13.2382L37.3496 7.76988L40.5353 2.30147L46.9237 2.29459H46.9236ZM12.6931 9.66975L15.862 15.1584L12.6896 20.6034L6.30125 20.6135L3.11898 15.1449L6.30469 9.67662L12.6931 9.66985V9.66975ZM24.177 15.9002L27.2418 21.2176L23.9789 26.817L17.7721 26.8271L14.6031 21.3789L17.7888 15.9104L24.1772 15.9003L24.177 15.9002ZM35.4899 22.0602L38.6454 27.5321L35.4731 32.9805L29.085 32.987L25.9998 27.6864L29.283 22.0703L35.4899 22.0602ZM46.9604 28.2773L50.1294 33.766L46.9572 39.211L40.5688 39.2176L37.3866 33.7526L40.5723 28.284L46.9606 28.2773H46.9604ZM23.9152 28.8348L27.0741 34.3097L23.9019 39.7547L17.5135 39.7615L14.3311 34.293L17.5065 28.8449L23.915 28.8348H23.9152Z" fill="black"/>
</svg>
